<svg xmlns="http://www.w3.org/2000/svg" viewBox="0 0 42.82 8.65"><defs><style>.a{fill:#000;}</style></defs><title>duualves</title><path class="a" d="M1.95.08a4.05,4.05,0,0,1,3,1.24,4,4,0,0,1,1.23,3,4,4,0,0,1-1.23,3,4.05,4.05,0,0,1-3,1.24H0V.08Zm0,8.1A3.76,3.76,0,0,0,4.69,7,3.75,3.75,0,0,0,5.84,4.29,3.75,3.75,0,0,0,4.69,1.53,3.76,3.76,0,0,0,1.95.4H.32V8.18Z"/><path class="a" d="M7.79,7.82a2.71,2.71,0,0,1-.83-2V.08h.32V5.82A2.52,2.52,0,0,0,9.79,8.34a2.41,2.41,0,0,0,1.78-.74,2.42,2.42,0,0,0,.74-1.78V.08h.32V5.82A2.83,2.83,0,0,1,9.79,8.65,2.71,2.71,0,0,1,7.79,7.82Z"/><path class="a" d="M19.54.08V8.5h-.77V6.39H15.43L14.1,8.5h-.91L18.5.08ZM15.91,5.62h2.85V1.11Z"/><path class="a" d="M21.35.08V7.72h3.91V8.5H20.57V.08Z"/><path class="a" d="M32.3.08,27,8.5H26V.08h.77V7.46L31.39.08Z"/><path class="a" d="M37.13.08V.85H33.61v3h2.78v.77H33.61V7.72h3.52V8.5H32.84V.08Z"/><path class="a" d="M39.94,8.57a3.22,3.22,0,0,1-1.49-.43A2.27,2.27,0,0,1,37.4,7l.73-.26a1.55,1.55,0,0,0,.76.81A2.55,2.55,0,0,0,40,7.8a2.17,2.17,0,0,0,1.5-.45,1.37,1.37,0,0,0,.57-1q0-1.1-2-1.68A4.25,4.25,0,0,1,37.9,3.49a1.79,1.79,0,0,1-.46-1.28,2.08,2.08,0,0,1,1-1.79A3.19,3.19,0,0,1,40.32,0a2.92,2.92,0,0,1,2.1.9l-.57.53A2.17,2.17,0,0,0,40.29.77a2.5,2.5,0,0,0-1.42.3,1.36,1.36,0,0,0-.65,1.17q0,1.08,2,1.66a4.22,4.22,0,0,1,2.13,1.17,1.82,1.82,0,0,1,.46,1.29A2.12,2.12,0,0,1,42,8a2.89,2.89,0,0,1-1.87.62Z"/></svg>